<?xml version="1.0" encoding="UTF-8"?>
<svg width="254px" height="297px" viewBox="0 0 254 297" version="1.1" xmlns="http://www.w3.org/2000/svg" xmlns:xlink="http://www.w3.org/1999/xlink">
    <!-- Generator: Sketch 50.2 (55047) - http://www.bohemiancoding.com/sketch -->
    <title>C</title>
    <desc>Created with Sketch.</desc>
    <defs></defs>
    <g id="Page-1" stroke="none" stroke-width="1" fill="none" fill-rule="evenodd" opacity="0.0372209821">
        <g id="Desktop-HD-Copy" transform="translate(-595.000000, -1313.000000)" fill="#FFFFFF">
            <path d="M810.465513,1504.60938 L848.356138,1514.17969 C840.41339,1545.29963 826.123169,1569.02987 805.485045,1585.37109 C784.846921,1601.71232 759.619308,1609.88281 729.801451,1609.88281 C698.941922,1609.88281 673.844516,1603.60032 654.508482,1591.03516 C635.172448,1578.46999 620.459053,1560.27356 610.367857,1536.44531 C600.276661,1512.61707 595.231138,1487.03139 595.231138,1459.6875 C595.231138,1429.86964 600.927696,1403.86079 612.320982,1381.66016 C623.714268,1359.45952 639.925044,1342.59771 660.953795,1331.07422 C681.982546,1319.55072 705.126845,1313.78906 730.387388,1313.78906 C759.033365,1313.78906 783.121666,1321.08066 802.653013,1335.66406 C822.184361,1350.24747 835.790996,1370.75508 843.473326,1397.1875 L806.168638,1405.97656 C799.52798,1385.14313 789.89266,1369.97401 777.262388,1360.46875 C764.632117,1350.96349 748.746859,1346.21094 729.606138,1346.21094 C707.60082,1346.21094 689.209077,1351.48432 674.430357,1362.03125 C659.651637,1372.57818 649.267627,1386.73819 643.278013,1404.51172 C637.2884,1422.28525 634.293638,1440.61188 634.293638,1459.49219 C634.293638,1483.84127 637.84178,1505.09757 644.93817,1523.26172 C652.034559,1541.42587 663.069605,1554.99996 678.043638,1563.98438 C693.017672,1572.96879 709.228447,1577.46094 726.676451,1577.46094 C747.900515,1577.46094 765.869086,1571.34121 780.582701,1559.10156 C795.296316,1546.86192 805.257154,1528.69804 810.465513,1504.60938 Z" id="C"></path>
        </g>
    </g>
</svg>